HIERARCHY
ROOT Hips
{
    OFFSET 0.000000 0.000000 0.000000
    CHANNELS 6 Xposition Yposition Zposition Zrotation Xrotation Yrotation
    JOINT Spine
    {
        OFFSET -0.000000 8.185774 0.000000
        CHANNELS 3 Zrotation Xrotation Yrotation
        JOINT Spine1
        {
            OFFSET -0.000000 23.949169 0.000000
            CHANNELS 3 Zrotation Xrotation Yrotation
            JOINT Neck
            {
                OFFSET -0.000000 23.850817 2.168256
                CHANNELS 3 Zrotation Xrotation Yrotation
                JOINT Head
                {
                    OFFSET -0.000000 13.975711 -1.996530
                    CHANNELS 3 Zrotation Xrotation Yrotation
                    End Site
                    {
                        OFFSET -0.000000 24.956627 0.000000
                    }
                }
            }
            JOINT LeftShoulder
            {
                OFFSET 3.979389 22.161966 -0.249083
                CHANNELS 3 Zrotation Xrotation Yrotation
                JOINT LeftArm
                {
                    OFFSET 10.812937 0.000000 0.000000
                    CHANNELS 3 Zrotation Xrotation Yrotation
                    JOINT LeftForeArm
                    {
                        OFFSET 31.697208 0.000000 0.000000
                        CHANNELS 3 Zrotation Xrotation Yrotation
                        JOINT LeftHand
                        {
                            OFFSET 27.047384 0.000000 0.000000
                            CHANNELS 3 Zrotation Xrotation Yrotation
                            End Site
                            {
                                OFFSET 14.973977 0.000000 0.000000
                            }
                        }
                    }
                }
            }
            JOINT RightShoulder
            {
                OFFSET -4.006446 22.161966 -0.249083
                CHANNELS 3 Zrotation Xrotation Yrotation
                JOINT RightArm
                {
                    OFFSET -10.812937 0.000000 0.000000
                    CHANNELS 3 Zrotation Xrotation Yrotation
                    JOINT RightForeArm
                    {
                        OFFSET -31.697208 0.000000 0.000000
                        CHANNELS 3 Zrotation Xrotation Yrotation
                        JOINT RightHand
                        {
                            OFFSET -27.047384 0.000000 0.000000
                            CHANNELS 3 Zrotation Xrotation Yrotation
                            End Site
                            {
                                OFFSET -14.973977 0.000000 0.000000
                            }
                        }
                    }
                }
            }
        }
    }
    JOINT LeftUpLeg
    {
        OFFSET 9.982651 0.000000 0.000000
        CHANNELS 3 Zrotation Xrotation Yrotation
        JOINT LeftLeg
        {
            OFFSET -0.000000 -38.511635 0.000000
            CHANNELS 3 Zrotation Xrotation Yrotation
            JOINT LeftFoot
            {
                OFFSET -0.000000 -44.789326 0.000000
                CHANNELS 3 Zrotation Xrotation Yrotation
                JOINT LeftToeBase
                {
                    OFFSET -0.000000 -6.488723 14.973977
                    CHANNELS 3 Zrotation Xrotation Yrotation
                    End Site
                    {
                        OFFSET -0.000000 0.000000 3.993060
                    }
                }
            }
        }
    }
    JOINT RightUpLeg
    {
        OFFSET -9.982651 0.000000 0.000000
        CHANNELS 3 Zrotation Xrotation Yrotation
        JOINT RightLeg
        {
            OFFSET -0.000000 -38.511635 0.000000
            CHANNELS 3 Zrotation Xrotation Yrotation
            JOINT RightFoot
            {
                OFFSET -0.000000 -44.789326 0.000000
                CHANNELS 3 Zrotation Xrotation Yrotation
                JOINT RightToeBase
                {
                    OFFSET -0.000000 -6.488723 14.973977
                    CHANNELS 3 Zrotation Xrotation Yrotation
                    End Site
                    {
                        OFFSET -0.000000 0.000000 3.993060
                    }
                }
            }
        }
    }
}
MOTION
Frames:    7
Frame Time:    0.008333
-9.960585    95.943359    11.466248    0.541382    -0.938929    176.368622    1.965892    -3.738244    1.074857    -1.752893    -3.823184    0.952221    8.669353    23.712000    3.084967    -10.760434    -22.329731    0.264819    18.255335    -1.328743    -1.118307    -17.212276    6.819489    -2.199482    -0.233123    6.441235    7.718779    -6.055083    6.168068    5.489649    -17.832237    -2.762797    -1.816464    20.395826    -15.483506    0.303656    0.139483    3.787855    2.151485    -10.188743    6.687810    -31.845762    4.645540    6.418241    8.363847    -1.619429    2.694174    2.686151    -5.557702    -1.609918    10.297728    0.000000    0.000000    0.000000    6.025474    -11.918716    2.388034    -19.723673    21.925985    -45.629971    -1.728072    20.312914    41.711361    0.000000    0.000000    0.000000    
-10.004065    95.946487    11.450358    0.510544    -0.937489    176.370590    1.946472    -3.796795    1.051164    -1.732090    -3.773643    0.929630    8.618405    23.759975    3.100470    -10.796728    -22.326195    0.269593    18.199541    -1.308930    -1.082086    -17.159311    6.735708    -2.215348    -0.234238    6.487172    7.700926    -6.000910    6.219444    5.436208    -17.873611    -2.804902    -1.784217    20.425200    -15.600058    0.324597    0.127205    3.899447    2.132421    -9.876235    6.693754    -31.672297    4.598765    6.479557    8.236099    -1.660513    2.602840    2.774482    -5.524697    -1.578991    10.320652    0.000000    0.000000    0.000000    5.959073    -11.868142    2.371479    -19.727377    21.845835    -45.769253    -1.754146    20.353548    41.860569    0.000000    0.000000    0.000000    
-10.037764    95.945068    11.430449    0.514191    -0.926005    176.392807    1.973456    -3.817388    1.040890    -1.773358    -3.783040    0.916532    8.622172    23.784870    3.088829    -10.783911    -22.233261    0.272616    18.182846    -1.278924    -1.094963    -17.096859    6.746615    -2.242536    -0.233637    6.478751    7.691038    -5.996193    6.210668    5.445866    -17.830330    -2.799404    -1.791366    20.410240    -15.743297    0.347810    0.155872    3.934335    2.130423    -9.851214    6.710799    -31.563345    4.598475    6.541738    8.106930    -1.703162    2.525052    2.915751    -5.500839    -1.553736    10.287575    0.000000    0.000000    0.000000    5.938959    -11.795220    2.341950    -19.732737    21.769005    -45.742779    -1.713348    20.345020    41.809189    0.000000    0.000000    0.000000    
-10.074803    95.943939    11.414705    0.498535    -0.934299    176.404877    1.963826    -3.881037    1.041259    -1.774961    -3.739016    0.916821    8.630068    23.809462    3.069037    -10.819593    -22.211956    0.244762    18.164770    -1.293069    -1.112699    -17.053499    6.758760    -2.268471    -0.235989    6.489522    7.692734    -6.048530    6.219687    5.435229    -17.812342    -2.802490    -1.817081    20.396460    -15.857781    0.360703    0.176842    3.907053    2.143249    -9.863143    6.675510    -31.443794    4.599200    6.565975    7.859971    -1.780424    2.489963    3.077321    -5.467276    -1.575613    10.332236    0.000000    0.000000    0.000000    5.894969    -11.756454    2.320124    -19.745243    21.694563    -45.922478    -1.777871    20.378511    42.031013    0.000000    0.000000    0.000000    
-10.112498    95.941673    11.399548    0.478546    -0.942629    176.432755    1.929168    -3.943488    1.035499    -1.742132    -3.689217    0.912990    8.637959    23.787613    3.040313    -10.870420    -22.132277    0.204000    18.166397    -1.326687    -1.120057    -17.046362    6.808806    -2.309384    -0.228580    6.512515    7.712770    -6.149139    6.237781    5.429556    -17.851326    -2.832775    -1.859944    20.412500    -16.022839    0.372040    0.231529    3.906611    2.141708    -9.917841    6.679219    -31.333370    4.561798    6.585577    7.742306    -1.803677    2.439352    3.190700    -5.434968    -1.562904    10.312263    0.000000    0.000000    0.000000    5.842180    -11.716583    2.281761    -19.810369    21.592102    -46.665119    -2.047601    20.526741    42.942329    0.000000    0.000000    0.000000    
-10.147413    95.938370    11.381570    0.453294    -0.945961    176.431976    1.917783    -3.985767    1.039343    -1.766870    -3.680274    0.915857    8.657284    23.818338    3.025772    -10.895283    -22.097443    0.187859    18.184029    -1.340219    -1.140792    -17.025911    6.885623    -2.325777    -0.225685    6.633520    7.742942    -6.291681    6.350379    5.458793    -17.793129    -2.819894    -1.866897    20.365499    -16.066813    0.361410    0.268684    3.821871    2.179389    -9.971428    6.602715    -31.264910    4.474199    6.609647    7.838665    -1.735276    2.391337    3.164382    -5.437539    -1.530662    10.249722    0.000000    0.000000    0.000000    5.792271    -11.674862    2.272926    -19.812296    21.531759    -46.680370    -2.008756    20.535576    42.939751    0.000000    0.000000    0.000000    
-10.181652    95.931839    11.368095    0.437769    -0.959844    176.461914    1.902278    -4.021770    1.033195    -1.767832    -3.691991    0.909439    8.658797    23.842575    2.994162    -10.902534    -22.057106    0.158418    18.216690    -1.325287    -1.162359    -17.031107    6.901081    -2.366441    -0.243734    6.708155    7.781124    -6.361961    6.426258    5.399959    -17.790977    -2.796631    -1.912654    20.377848    -16.058617    0.386421    0.291597    3.751851    2.195539    -10.014499    6.538952    -31.204676    4.438710    6.605512    7.761392    -1.736888    2.375375    3.201064    -5.404347    -1.542386    10.255239    0.000000    0.000000    0.000000    5.748611    -11.650017    2.234951    -19.832750    21.470484    -46.866127    -2.054845    20.566626    43.164085    0.000000    0.000000    0.000000    
